<mxfile host="app.diagrams.net" modified="2024-04-10T07:58:19.235Z" agent="Mozilla/5.0 (Windows NT 10.0; Win64; x64) AppleWebKit/537.36 (KHTML, like Gecko) Chrome/123.0.0.0 Safari/537.36" version="24.2.3" etag="9IcwcUm1T0_fda8eZmvF" type="github">
  <diagram name="Page-1" id="XIVPitrMLd-AdcRj3rT7">
    <mxGraphModel>
      <root>
        <mxCell id="0" />
        <mxCell id="1" parent="0" />
      </root>
    </mxGraphModel>
  </diagram>
</mxfile>
